# xmcd
#
# Track frame offsets:
#	150
#	18312
#	33900
#	48775
#	61800
#	80275
#	98300
#	113812
#	131387
#	147637
#	161325
#	174362
#	190275
#	202412
#	217187
#	234350
#	256812
#	271325
#
# Disc length: 3801 seconds
#
# Revision: 1
# Processed by: cddbd v1.5.2PL0 Copyright (c) Steve Scherf et al.
# Submitted via: audiograbber 1.83.01
#
DISCID=ef0ed712
DTITLE=Andy Williams - Andy+8 bonus tracks
DYEAR=1900
DGENRE=
TTITLE0=Yellow Beach Umbrella
TTITLE1=Sailin`
TTITLE2=Òhank you,Baby
TTITLE3=Since I Fell For You
TTITLE4=My Lonely Room
TTITLE5=Put Your Blues To Bed
TTITLE6=If You Ever Believed
TTITLE7=Groovin`
TTITLE8=Òryin`To Forget I Loved You
TTITLE9=Òhe Poem
TTITLE10=Love Said Goodbye
TTITLE11=One More Time
TTITLE12=Òell It Like It Is
TTITLE13=Goin`Through The Motions
TTITLE14=Are You There?
TTITLE15=Are You There
TTITLE16=Jason
TTITLE17=I`ll Never Love Anyone Anymore
EXTD=
EXTT0=
EXTT1=
EXTT2=
EXTT3=
EXTT4=
EXTT5=
EXTT6=
EXTT7=
EXTT8=
EXTT9=
EXTT10=
EXTT11=
EXTT12=
EXTT13=
EXTT14=
EXTT15=
EXTT16=
EXTT17=
PLAYORDER=
